{"topic": "/a00273/stream", "msg": "[\"2e:48:94:d9:4a:3a\",-94]"}{"topic": "$SYS/brokers/emqx@127.0.0.1/sysdescr", "msg": "EMQ X Broker"}{"topic": "$SYS/brokers/emqx@127.0.0.1/version", "msg": "4.3.8"}{"topic": "$SYS/brokers", "msg": "emqx@127.0.0.1"}{"topic": "/b00169//log", "msg": "Stream frame=1024755 fps= 20 q=28.0 size= 1896975kB time=14:14:12.95 bitrate= 303.2kbits/s dup=0 drop=5 speed=   1x    \r"}{"topic": "/a00241/stream", "msg": "[\"b8:27:eb:6f:75:6a\",-91]"}{"topic": "/a00241/stream", "msg": "[\"8a:0e:26:68:8b:bd\",-76]"}{"topic": "/b00330/log", "msg": "2022-03-09 01:01:25;info;record;file_start;D:\\Grabaciones\\c00085\\2022-03-09\\video\\2022-03-09_01-01-25.mp4"}{"topic": "/b00180/log", "msg": "2022-03-09 01:01:25;info;record;file_start;D:\\Grabaciones\\c00043\\2022-03-09\\video\\2022-03-09_01-01-25.mp4"}{"topic": "/b00169//log", "msg": "Stream frame=347149 fps=6.0 q=29.0 size= 2062130kB time=16:04:32.83 bitrate= 291.9kbits/s dup=0 drop=5 speed=   1x    \r"}{"topic": "/a00224/stream", "msg": "[\"8c:18:d9:84:b6:29\",-68]"}{"topic": "/b00190/log", "msg": "2022-03-09 01:01:25;info;record;screenshot;c00123"}{"topic": "/a00355/stream", "msg": "[\"5a:06:7c:53:1f:ee\",-78]"}{"topic": "/a00011/stream", "msg": "[\"a8:51:5b:d5:5a:b1\",-91]"}{"topic": "/b00330/log", "msg": "2022-03-09 01:01:25;info;record;file_start;D:\\Grabaciones\\c00085\\2022-03-09\\video\\2022-03-09_01-01-25.mp4"}{"topic": "/a00379/stream", "msg": "[\"8e:56:93:f6:2e:53\",-88]"}{"topic": "/a00052/stream", "msg": "[\"5a:d7:c6:bf:35:f8\",-80]"}{"topic": "/b00169//log", "msg": "Stream frame=347262 fps=6.0 q=23.0 size= 1716859kB time=16:04:33.16 bitrate= 243.0kbits/s dup=0 drop=99 speed=   1x    \r"}{"topic": "/b00169//log", "msg": "Stream frame=347151 fps=6.0 q=24.0 size= 1750992kB time=16:04:33.00 bitrate= 247.9kbits/s dup=0 drop=5 speed=   1x    \r"}{"topic": "/b00180/log", "msg": "2022-03-09 01:01:25;info;record;file_start;D:\\Grabaciones\\c00042\\2022-03-09\\video\\2022-03-09_01-01-25.mp4"}{"topic": "/b00180/log", "msg": "2022-03-09 01:01:25;info;record;file_start;D:\\Grabaciones\\c00041\\2022-03-09\\video\\2022-03-09_01-01-25.mp4"}{"topic": "/a00259/stream", "msg": "[\"84:7c:9b:4a:7b:8e\",-55]"}{"topic": "/a00218/stream", "msg": "[\"dc:f5:05:12:13:67\",-61]"}{"topic": "/a00342/stream", "msg": "[\"ae:a9:99:57:de:13\",-96]"}{"topic": "/a00154/stream", "msg": "[\"82:21:20:42:5a:48\",-85]"}{"topic": "/a00226/stream", "msg": "[\"8a:2a:9c:3c:93:a0\",-73]"}{"topic": "/a00214/stream", "msg": "[\"fe:78:eb:b5:29:75\",-72]"}{"topic": "/b00330/log", "msg": "2022-03-09 01:01:25;info;record;file_start;D:\\Grabaciones\\c00085\\2022-03-09\\video\\2022-03-09_01-01-25.mp4"}{"topic": "/b00180/log", "msg": "2022-03-09 01:01:26;info;record;file_start;D:\\Grabaciones\\c00041\\2022-03-09\\video\\2022-03-09_01-01-26.mp4"}{"topic": "/b00180/log", "msg": "2022-03-09 01:01:26;info;record;file_start;D:\\Grabaciones\\c00042\\2022-03-09\\video\\2022-03-09_01-01-26.mp4"}{"topic": "/b00180/log", "msg": "2022-03-09 01:01:26;info;record;file_start;D:\\Grabaciones\\c00043\\2022-03-09\\video\\2022-03-09_01-01-26.mp4"}{"topic": "/a00011/stream", "msg": "[\"04:ba:36:65:2d:e7\",-57]"}{"topic": "/a00346/stream", "msg": "[\"e0:dc:ff:30:77:0a\",-89]"}{"topic": "/a00275/stream", "msg": "[\"ec:3d:fd:e9:62:61\",-95]"}{"topic": "/a00257/stream", "msg": "[\"76:20:24:26:b4:f8\",-91]"}{"topic": "/b00330/log", "msg": "2022-03-09 01:01:25;info;record;file_start;D:\\Grabaciones\\c00085\\2022-03-09\\video\\2022-03-09_01-01-25.mp4"}{"topic": "/b00330/log", "msg": "2022-03-09 01:01:26;info;record;file_start;D:\\Grabaciones\\c00085\\2022-03-09\\video\\2022-03-09_01-01-26.mp4"}{"topic": "/a00224/stream", "msg": "[\"8c:18:d9:84:ba:d6\",-69]"}{"topic": "/a00224/stream", "msg": "[\"8c:18:d9:84:b6:29\",-73]"}{"topic": "/a00224/stream", "msg": "[\"8c:18:d9:84:ba:d6\",-81]"}{"topic": "/b00180/log", "msg": "2022-03-09 01:01:26;info;record;file_start;D:\\Grabaciones\\c00043\\2022-03-09\\video\\2022-03-09_01-01-26.mp4"}{"topic": "/a00241/stream", "msg": "[\"e8:5a:8b:3d:2a:ea\",-93]"}{"topic": "/a00104/stream", "msg": "[\"20:20:05:00:30:7f\",-78]"}{"topic": "/a00249/stream", "msg": "[\"60:42:7f:56:51:d2\",-75]"}{"topic": "/b00308//log", "msg": "Stream frame=288159 fps=5.0 q=23.0 size= 2069940kB time=16:02:10.00 bitrate= 293.7kbits/s speed=   1x    \r"}{"topic": "/a00314/stream", "msg": "[\"9a:18:a8:50:05:15\",-78]"}{"topic": "/b00330/log", "msg": "2022-03-09 01:01:26;info;record;file_start;D:\\Grabaciones\\c00085\\2022-03-09\\video\\2022-03-09_01-01-26.mp4"}{"topic": "/b00169//log", "msg": "Stream frame=1024766 fps= 20 q=28.0 size= 1896984kB time=14:14:13.50 bitrate= 303.2kbits/s dup=0 drop=5 speed=   1x    \r"}{"topic": "/b00180/log", "msg": "2022-03-09 01:01:26;info;record;file_start;D:\\Grabaciones\\c00041\\2022-03-09\\video\\2022-03-09_01-01-26.mp4"}{"topic": "/b00180/log", "msg": "2022-03-09 01:01:26;info;record;file_start;D:\\Grabaciones\\c00042\\2022-03-09\\video\\2022-03-09_01-01-26.mp4"}{"topic": "/a00252/stream", "msg": "[\"ac:a2:13:24:0f:7c\",-91]"}{"topic": "/a00011/stream", "msg": "[\"a8:51:5b:d5:5a:b1\",-91]"}{"topic": "/a00314/stream", "msg": "[\"9a:18:a8:4f:f5:71\",-72]"}{"topic": "/a00148/stream", "msg": "[\"82:31:f5:0e:30:c7\",-92]"}{"topic": "/a00314/stream", "msg": "[\"c8:94:02:cc:41:b1\",-86]"}{"topic": "/b00330/log", "msg": "2022-03-09 01:01:26;info;record;file_start;D:\\Grabaciones\\c00085\\2022-03-09\\video\\2022-03-09_01-01-26.mp4"}{"topic": "/b00180/log", "msg": "2022-03-09 01:01:26;info;record;file_start;D:\\Grabaciones\\c00042\\2022-03-09\\video\\2022-03-09_01-01-26.mp4"}{"topic": "/b00180/log", "msg": "2022-03-09 01:01:26;info;record;file_start;D:\\Grabaciones\\c00043\\2022-03-09\\video\\2022-03-09_01-01-26.mp4"}{"topic": "/b00180/log", "msg": "2022-03-09 01:01:26;info;record;file_start;D:\\Grabaciones\\c00041\\2022-03-09\\video\\2022-03-09_01-01-26.mp4"}{"topic": "/a00342/stream", "msg": "[\"b0:02:47:66:2c:6d\",-63]"}{"topic": "/a00224/stream", "msg": "[\"8c:18:d9:86:eb:f4\",-75]"}{"topic": "/a00224/stream", "msg": "[\"8c:18:d9:84:b6:14\",-67]"}{"topic": "/b00169//log", "msg": "Stream frame=347153 fps=6.0 q=34.0 size= 2062154kB time=16:04:33.50 bitrate= 291.9kbits/s dup=0 drop=5 speed=   1x    \r"}{"topic": "/b00330/log", "msg": "2022-03-09 01:01:26;info;record;file_start;D:\\Grabaciones\\c00085\\2022-03-09\\video\\2022-03-09_01-01-26.mp4"}{"topic": "/a00143/stream", "msg": "[\"e2:cb:9c:8d:d2:d9\",-88]"}{"topic": "/b00180/log", "msg": "2022-03-09 01:01:26;info;record;file_start;D:\\Grabaciones\\c00041\\2022-03-09\\video\\2022-03-09_01-01-26.mp4"}{"topic": "/b00180/log", "msg": "2022-03-09 01:01:26;info;record;file_start;D:\\Grabaciones\\c00043\\2022-03-09\\video\\2022-03-09_01-01-26.mp4"}{"topic": "/b00180/log", "msg": "2022-03-09 01:01:26;info;record;file_start;D:\\Grabaciones\\c00042\\2022-03-09\\video\\2022-03-09_01-01-26.mp4"}{"topic": "/b00169//log", "msg": "Stream frame=347266 fps=6.0 q=23.0 size= 1716864kB time=16:04:33.83 bitrate= 243.0kbits/s dup=0 drop=99 speed=   1x    \r"}{"topic": "/b00330/log", "msg": "2022-03-09 01:01:26;info;record;file_start;D:\\Grabaciones\\c00085\\2022-03-09\\video\\2022-03-09_01-01-26.mp4"}{"topic": "/a00044/stream", "msg": "[\"d4:b7:61:1b:76:c5\",-86]"}{"topic": "/a00154/stream", "msg": "[\"e6:95:ac:00:d4:96\",-91]"}{"topic": "/a00241/stream", "msg": "[\"ac:a2:13:24:0f:7c\",-92]"}{"topic": "/a00250/stream", "msg": "[\"dc:a6:32:87:46:d3\",-69]"}{"topic": "/b00180/log", "msg": "2022-03-09 01:01:26;info;record;file_start;D:\\Grabaciones\\c00043\\2022-03-09\\video\\2022-03-09_01-01-26.mp4"}{"topic": "/a00257/stream", "msg": "[\"8c:18:d9:86:e6:ba\",-61]"}{"topic": "/b00169//log", "msg": "Stream frame=347155 fps=6.0 q=24.0 size= 1751001kB time=16:04:33.66 bitrate= 247.9kbits/s dup=0 drop=5 speed=   1x    \r"}{"topic": "/a00249/stream", "msg": "[\"36:8b:41:10:56:12\",-84]"}{"topic": "/b00330/log", "msg": "2022-03-09 01:01:26;info;record;file_start;D:\\Grabaciones\\c00085\\2022-03-09\\video\\2022-03-09_01-01-26.mp4"}{"topic": "/a00139/stream", "msg": "[\"b0:6f:e0:65:04:e6\",-96]"}{"topic": "/c00411/start", "msg": "true"}{"topic": "/a00044/stream", "msg": "[\"d4:b7:61:1b:76:c5\",-89]"}{"topic": "/a00224/stream", "msg": "[\"8c:18:d9:86:eb:f4\",-78]"}{"topic": "/a00224/stream", "msg": "[\"8c:18:d9:84:b6:14\",-68]"}{"topic": "/a00166/stream", "msg": "[\"e8:2a:44:c8:33:f1\",-94]"}{"topic": "/b00180/log", "msg": "2022-03-09 01:01:26;info;record;file_start;D:\\Grabaciones\\c00041\\2022-03-09\\video\\2022-03-09_01-01-26.mp4"}{"topic": "/b00180/log", "msg": "2022-03-09 01:01:26;info;record;file_start;D:\\Grabaciones\\c00042\\2022-03-09\\video\\2022-03-09_01-01-26.mp4"}{"topic": "/a00139/stream", "msg": "[\"00:08:22:f7:d5:15\",-88]"}{"topic": "/a00154/stream", "msg": "[\"fc:01:7c:9b:86:01\",-88]"}{"topic": "/a00126/stream", "msg": "[\"e8:d8:19:c3:18:f9\",-92]"}{"topic": "/b00330/log", "msg": "2022-03-09 01:01:26;info;record;file_start;D:\\Grabaciones\\c00085\\2022-03-09\\video\\2022-03-09_01-01-26.mp4"}{"topic": "/b00330/log", "msg": "2022-03-09 01:01:26;info;record;file_start;D:\\Grabaciones\\c00085\\2022-03-09\\video\\2022-03-09_01-01-26.mp4"}{"topic": "/a00257/stream", "msg": "[\"8c:18:d9:af:ad:ed\",-77]"}{"topic": "/a00257/stream", "msg": "[\"8c:18:d9:86:e6:ba\",-61]"}{"topic": "/b00308//log", "msg": "Stream frame=288162 fps=5.0 q=26.0 size= 2069975kB time=16:02:10.60 bitrate= 293.7kbits/s speed=   1x    \r"}{"topic": "/a00225/stream", "msg": "[\"ee:9f:73:af:a5:43\",-92]"}{"topic": "/b00169//log", "msg": "Stream frame=1024777 fps= 20 q=28.0 size= 1896992kB time=14:14:14.05 bitrate= 303.2kbits/s dup=0 drop=5 speed=   1x    \r"}{"topic": "/a00085/stream", "msg": "[\"14:bb:6e:04:6c:76\",-96]"}{"topic": "/a00355/stream", "msg": "[\"86:43:d6:70:aa:b0\",-58]"}{"topic": "/b00380//log", "msg": "Image Uploaded: c00441"}{"topic": "/b00180/log", "msg": "2022-03-09 01:01:26;info;record;file_start;D:\\Grabaciones\\c00041\\2022-03-09\\video\\2022-03-09_01-01-26.mp4"}{"topic": "/b00180/log", "msg": "2022-03-09 01:01:26;info;record;file_start;D:\\Grabaciones\\c00042\\2022-03-09\\video\\2022-03-09_01-01-26.mp4"}{"topic": "/b00180/log", "msg": "2022-03-09 01:01:26;info;record;file_start;D:\\Grabaciones\\c00043\\2022-03-09\\video\\2022-03-09_01-01-26.mp4"}{"topic": "/a00218/stream", "msg": "[\"e6:bf:19:25:f8:3b\",-86]"}{"topic": "/b00330/log", "msg": "2022-03-09 01:01:26;info;record;file_start;D:\\Grabaciones\\c00085\\2022-03-09\\video\\2022-03-09_01-01-26.mp4"}{"topic": "/a00367/stream", "msg": "[\"00:1c:7b:e0:40:96\",-57]"}{"topic": "/a00342/stream", "msg": "[\"ae:a9:99:57:de:13\",-93]"}{"topic": "/a00257/stream", "msg": "[\"8c:18:d9:af:ad:ed\",-77]"}{"topic": "/a00257/stream", "msg": "[\"8c:18:d9:86:e6:ba\",-62]"}{"topic": "/b00180/log", "msg": "2022-03-09 01:01:27;info;record;file_start;D:\\Grabaciones\\c00042\\2022-03-09\\video\\2022-03-09_01-01-27.mp4"}{"topic": "/b00180/log", "msg": "2022-03-09 01:01:27;info;record;file_start;D:\\Grabaciones\\c00043\\2022-03-09\\video\\2022-03-09_01-01-27.mp4"}{"topic": "/b00180/log", "msg": "2022-03-09 01:01:27;info;record;file_start;D:\\Grabaciones\\c00041\\2022-03-09\\video\\2022-03-09_01-01-27.mp4"}{"topic": "/a00360/stream", "msg": "[\"22:d1:6b:53:38:34\",-95]"}{"topic": "/a00241/stream", "msg": "[\"7a:b6:4d:be:fe:de\",-90]"}{"topic": "/b00330/log", "msg": "2022-03-09 01:01:26;info;record;file_start;D:\\Grabaciones\\c00085\\2022-03-09\\video\\2022-03-09_01-01-26.mp4"}{"topic": "/a00224/stream", "msg": "[\"8c:18:d9:84:ba:3e\",-75]"}{"topic": "/b00169//log", "msg": "Stream frame=347269 fps=6.0 q=23.0 size= 1716868kB time=16:04:34.33 bitrate= 243.0kbits/s dup=0 drop=99 speed=   1x    \r"}{"topic": "/a00257/stream", "msg": "[\"8c:18:d9:af:ad:ed\",-80]"}{"topic": "/b00180/log", "msg": "2022-03-09 01:01:27;info;record;file_start;D:\\Grabaciones\\c00043\\2022-03-09\\video\\2022-03-09_01-01-27.mp4"}{"topic": "/b00330/log", "msg": "2022-03-09 01:01:27;info;record;file_start;D:\\Grabaciones\\c00085\\2022-03-09\\video\\2022-03-09_01-01-27.mp4"}{"topic": "/b00330/log", "msg": "2022-03-09 01:01:27;info;record;file_start;D:\\Grabaciones\\c00085\\2022-03-09\\video\\2022-03-09_01-01-27.mp4"}{"topic": "/b00169//log", "msg": "Stream frame=347157 fps=6.0 q=33.0 size= 2062182kB time=16:04:34.16 bitrate= 291.9kbits/s dup=0 drop=5 speed=   1x    \r"}{"topic": "/a00367/stream", "msg": "[\"08:10:79:f0:df:b3\",-92]"}{"topic": "/a00207/stream", "msg": "[\"60:a4:d0:6b:fb:3c\",-83]"}{"topic": "/a00259/stream", "msg": "[\"8c:18:d9:84:bb:82\",-60]"}{"topic": "/b00180/log", "msg": "2022-03-09 01:01:27;info;record;file_start;D:\\Grabaciones\\c00042\\2022-03-09\\video\\2022-03-09_01-01-27.mp4"}{"topic": "/b00180/log", "msg": "2022-03-09 01:01:27;info;record;file_start;D:\\Grabaciones\\c00041\\2022-03-09\\video\\2022-03-09_01-01-27.mp4"}{"topic": "/b00330/log", "msg": "2022-03-09 01:01:27;info;record;file_start;D:\\Grabaciones\\c00085\\2022-03-09\\video\\2022-03-09_01-01-27.mp4"}{"topic": "/b00169//log", "msg": "Stream frame=347159 fps=6.0 q=24.0 size= 1751009kB time=16:04:34.33 bitrate= 247.9kbits/s dup=0 drop=5 speed=   1x    \r"}{"topic": "/b00169//log", "msg": "Stream frame=1024786 fps= 20 q=29.0 size= 1897021kB time=14:14:14.50 bitrate= 303.2kbits/s dup=0 drop=5 speed=   1x    \r"}{"topic": "/a00230/stream", "msg": "[\"36:56:de:c7:4d:fa\",-85]"}{"topic": "/a00055/stream", "msg": "[\"30:b5:c2:95:d7:c7\",-95]"}{"topic": "/a00011/stream", "msg": "[\"06:f9:3e:49:f9:af\",-59]"}{"topic": "/a00247/stream", "msg": "[\"60:42:7f:56:51:d2\",-80]"}{"topic": "/b00330/log", "msg": "2022-03-09 01:01:27;info;record;file_start;D:\\Grabaciones\\c00085\\2022-03-09\\video\\2022-03-09_01-01-27.mp4"}{"topic": "/b00180/log", "msg": "2022-03-09 01:01:27;info;record;file_start;D:\\Grabaciones\\c00041\\2022-03-09\\video\\2022-03-09_01-01-27.mp4"}{"topic": "/b00180/log", "msg": "2022-03-09 01:01:27;info;record;file_start;D:\\Grabaciones\\c00042\\2022-03-09\\video\\2022-03-09_01-01-27.mp4"}{"topic": "/b00180/log", "msg": "2022-03-09 01:01:27;info;record;file_start;D:\\Grabaciones\\c00043\\2022-03-09\\video\\2022-03-09_01-01-27.mp4"}{"topic": "/b00308//log", "msg": "Stream frame=288165 fps=5.0 q=24.0 size= 2069990kB time=16:02:11.20 bitrate= 293.7kbits/s speed=   1x    \r"}{"topic": "/a00241/stream", "msg": "[\"ac:e0:10:6f:09:db\",-89]"}{"topic": "/a00149/stream", "msg": "[\"14:6b:9c:34:30:95\",-68]"}{"topic": "/b00330/log", "msg": "2022-03-09 01:01:27;info;record;file_start;D:\\Grabaciones\\c00085\\2022-03-09\\video\\2022-03-09_01-01-27.mp4"}{"topic": "/b00180/log", "msg": "2022-03-09 01:01:27;info;record;file_start;D:\\Grabaciones\\c00041\\2022-03-09\\video\\2022-03-09_01-01-27.mp4"}{"topic": "/b00180/log", "msg": "2022-03-09 01:01:27;info;record;file_start;D:\\Grabaciones\\c00042\\2022-03-09\\video\\2022-03-09_01-01-27.mp4"}{"topic": "/b00180/log", "msg": "2022-03-09 01:01:27;info;record;file_start;D:\\Grabaciones\\c00043\\2022-03-09\\video\\2022-03-09_01-01-27.mp4"}{"topic": "/a00038/stream", "msg": "[\"da:a1:19:49:9e:89\",-84]"}{"topic": "/b00330/log", "msg": "2022-03-09 01:01:27;info;record;file_start;D:\\Grabaciones\\c00085\\2022-03-09\\video\\2022-03-09_01-01-27.mp4"}{"topic": "/b00330/log", "msg": "2022-03-09 01:01:27;info;record;file_start;D:\\Grabaciones\\c00085\\2022-03-09\\video\\2022-03-09_01-01-27.mp4"}{"topic": "/b00180/log", "msg": "2022-03-09 01:01:27;info;record;file_start;D:\\Grabaciones\\c00041\\2022-03-09\\video\\2022-03-09_01-01-27.mp4"}{"topic": "/b00180/log", "msg": "2022-03-09 01:01:27;info;record;file_start;D:\\Grabaciones\\c00043\\2022-03-09\\video\\2022-03-09_01-01-27.mp4"}{"topic": "/b00180/log", "msg": "2022-03-09 01:01:27;info;record;file_start;D:\\Grabaciones\\c00042\\2022-03-09\\video\\2022-03-09_01-01-27.mp4"}{"topic": "/a00038/stream", "msg": "[\"da:a1:19:49:9e:89\",-84]"}{"topic": "/a00038/stream", "msg": "[\"da:a1:19:c8:e6:9a\",-85]"}{"topic": "/a00224/stream", "msg": "[\"8c:18:d9:86:ed:56\",-62]"}{"topic": "/a00214/stream", "msg": "[\"00:0c:e7:6b:d4:e3\",-69]"}{"topic": "/b00330/log", "msg": "2022-03-09 01:01:27;info;record;file_start;D:\\Grabaciones\\c00085\\2022-03-09\\video\\2022-03-09_01-01-27.mp4"}{"topic": "/a00183/stream", "msg": "[\"80:91:33:92:b6:61\",-73]"}{"topic": "/b00180/log", "msg": "2022-03-09 01:01:27;info;record;file_start;D:\\Grabaciones\\c00041\\2022-03-09\\video\\2022-03-09_01-01-27.mp4"}{"topic": "/b00169//log", "msg": "Stream frame=347273 fps=6.0 q=23.0 size= 1716872kB time=16:04:35.00 bitrate= 243.0kbits/s dup=0 drop=99 speed=   1x    \r"}{"topic": "/a00248/stream", "msg": "[\"28:39:26:58:b0:e9\",-97]"}{"topic": "/a00226/stream", "msg": "[\"2a:13:81:5c:3e:67\",-80]"}{"topic": "/b00330/log", "msg": "2022-03-09 01:01:27;info;record;file_start;D:\\Grabaciones\\c00085\\2022-03-09\\video\\2022-03-09_01-01-27.mp4"}{"topic": "/b00169//log", "msg": "Stream frame=347162 fps=6.0 q=23.0 size= 1751015kB time=16:04:34.83 bitrate= 247.9kbits/s dup=0 drop=5 speed=   1x    \r"}{"topic": "/b00169//log", "msg": "Stream frame=347161 fps=6.0 q=31.0 size= 2062190kB time=16:04:34.83 bitrate= 291.9kbits/s dup=0 drop=5 speed=   1x    \r"}{"topic": "/b00169//log", "msg": "Stream frame=1024797 fps= 20 q=28.0 size= 1897064kB time=14:14:15.05 bitrate= 303.2kbits/s dup=0 drop=5 speed=   1x    \r"}{"topic": "/a00241/stream", "msg": "[\"ac:a2:13:24:0f:86\",-86]"}{"topic": "/b00180/log", "msg": "2022-03-09 01:01:27;info;record;file_start;D:\\Grabaciones\\c00043\\2022-03-09\\video\\2022-03-09_01-01-27.mp4"}{"topic": "/b00180/log", "msg": "2022-03-09 01:01:27;info;record;file_start;D:\\Grabaciones\\c00042\\2022-03-09\\video\\2022-03-09_01-01-27.mp4"}{"topic": "/a00126/stream", "msg": "[\"2a:66:16:3a:51:5d\",-72]"}{"topic": "/a00346/stream", "msg": "[\"f4:ce:46:af:92:fa\",-80]"}{"topic": "/a00044/stream", "msg": "[\"50:3e:aa:30:c1:e3\",-95]"}{"topic": "/b00330/log", "msg": "2022-03-09 01:01:27;info;record;file_start;D:\\Grabaciones\\c00085\\2022-03-09\\video\\2022-03-09_01-01-27.mp4"}{"topic": "/b00330/log", "msg": "2022-03-09 01:01:27;info;record;file_start;D:\\Grabaciones\\c00085\\2022-03-09\\video\\2022-03-09_01-01-27.mp4"}{"topic": "/b00180/log", "msg": "2022-03-09 01:01:28;info;record;file_start;D:\\Grabaciones\\c00041\\2022-03-09\\video\\2022-03-09_01-01-28.mp4"}{"topic": "/b00180/log", "msg": "2022-03-09 01:01:28;info;record;file_start;D:\\Grabaciones\\c00043\\2022-03-09\\video\\2022-03-09_01-01-28.mp4"}{"topic": "/b00180/log", "msg": "2022-03-09 01:01:28;info;record;file_start;D:\\Grabaciones\\c00042\\2022-03-09\\video\\2022-03-09_01-01-28.mp4"}{"topic": "/b00308//log", "msg": "Stream frame=288168 fps=5.0 q=24.0 size= 2070007kB time=16:02:11.80 bitrate= 293.7kbits/s speed=   1x    \r"}{"topic": "/a00214/stream", "msg": "[\"c8:3d:d4:bd:7c:30\",-76]"}{"topic": "/a00126/stream", "msg": "[\"d0:57:7b:c4:f2:a2\",-78]"}{"topic": "/b00330/log", "msg": "2022-03-09 01:01:28;info;record;file_start;D:\\Grabaciones\\c00085\\2022-03-09\\video\\2022-03-09_01-01-28.mp4"}{"topic": "/a00112/stream", "msg": "[\"56:bc:a3:0f:7b:3f\",-93]"}{"topic": "/b00180/log", "msg": "2022-03-09 01:01:28;info;record;file_start;D:\\Grabaciones\\c00043\\2022-03-09\\video\\2022-03-09_01-01-28.mp4"}{"topic": "/a00091/stream", "msg": "[\"00:b0:6c:16:f7:8e\",-82]"}{"topic": "/a00139/stream", "msg": "[\"00:00:00:b4:11:64\",-97]"}{"topic": "/b00330/log", "msg": "2022-03-09 01:01:28;info;record;file_start;D:\\Grabaciones\\c00085\\2022-03-09\\video\\2022-03-09_01-01-28.mp4"}{"topic": "/a00038/stream", "msg": "[\"5c:49:7d:84:c7:8e\",-83]"}{"topic": "/b00180/log", "msg": "2022-03-09 01:01:28;info;record;file_start;D:\\Grabaciones\\c00041\\2022-03-09\\video\\2022-03-09_01-01-28.mp4"}{"topic": "/b00180/log", "msg": "2022-03-09 01:01:28;info;record;file_start;D:\\Grabaciones\\c00042\\2022-03-09\\video\\2022-03-09_01-01-28.mp4"}{"topic": "/a00117/stream", "msg": "[\"da:a1:19:a8:ad:b9\",-93]"}{"topic": "/b00169//log", "msg": "Stream frame=1024807 fps= 20 q=28.0 size= 1897075kB time=14:14:15.55 bitrate= 303.2kbits/s dup=0 drop=5 speed=   1x    \r"}{"topic": "/a00241/stream", "msg": "[\"40:45:da:4a:29:77\",-84]"}{"topic": "/a00139/stream", "msg": "[\"60:72:0b:9d:58:24\",-90]"}{"topic": "/b00330/log", "msg": "2022-03-09 01:01:28;info;record;file_start;D:\\Grabaciones\\c00085\\2022-03-09\\video\\2022-03-09_01-01-28.mp4"}{"topic": "/a00247/stream", "msg": "[\"0c:62:a6:7d:57:e1\",-73]"}{"topic": "/a00038/stream", "msg": "[\"5c:49:7d:84:c7:8e\",-78]"}{"topic": "/a00038/stream", "msg": "[\"5c:49:7d:84:c7:8e\",-77]"}{"topic": "/a00038/stream", "msg": "[\"5c:49:7d:84:c8:81\",-73]"}{"topic": "/a00143/stream", "msg": "[\"f8:04:2e:4a:ac:85\",-92]"}{"topic": "/b00180/log", "msg": "2022-03-09 01:01:28;info;record;file_start;D:\\Grabaciones\\c00041\\2022-03-09\\video\\2022-03-09_01-01-28.mp4"}{"topic": "/b00180/log", "msg": "2022-03-09 01:01:28;info;record;file_start;D:\\Grabaciones\\c00042\\2022-03-09\\video\\2022-03-09_01-01-28.mp4"}{"topic": "/b00180/log", "msg": "2022-03-09 01:01:28;info;record;file_start;D:\\Grabaciones\\c00043\\2022-03-09\\video\\2022-03-09_01-01-28.mp4"}{"topic": "/b00169//log", "msg": "Stream frame=347277 fps=6.0 q=23.0 size= 1716876kB time=16:04:35.66 bitrate= 243.0kbits/s dup=0 drop=99 speed=   1x    \r"}{"topic": "/b00169//log", "msg": "Stream frame=347166 fps=6.0 q=23.0 size= 1751023kB time=16:04:35.50 bitrate= 247.8kbits/s dup=0 drop=5 speed=   1x    \r"}{"topic": "/a00224/stream", "msg": "[\"8c:18:d9:83:9e:a3\",-82]"}{"topic": "/a00052/stream", "msg": "[\"f8:04:2e:59:7a:d3\",-77]"}{"topic": "/a00011/stream", "msg": "[\"8a:42:db:d3:e3:f4\",-50]"}{"topic": "/b00330/log", "msg": "2022-03-09 01:01:28;info;record;file_start;D:\\Grabaciones\\c00085\\2022-03-09\\video\\2022-03-09_01-01-28.mp4"}{"topic": "/a00038/stream", "msg": "[\"5c:49:7d:84:c8:81\",-70]"}{"topic": "/a00038/stream", "msg": "[\"5c:49:7d:84:c8:81\",-71]"}{"topic": "/a00038/stream", "msg": "[\"5c:49:7d:84:c8:81\",-75]"}{"topic": "/b00180/log", "msg": "2022-03-09 01:01:28;info;record;file_start;D:\\Grabaciones\\c00041\\2022-03-09\\video\\2022-03-09_01-01-28.mp4"}{"topic": "/b00180/log", "msg": "2022-03-09 01:01:28;info;record;file_start;D:\\Grabaciones\\c00042\\2022-03-09\\video\\2022-03-09_01-01-28.mp4"}{"topic": "/b00180/log", "msg": "2022-03-09 01:01:28;info;record;file_start;D:\\Grabaciones\\c00043\\2022-03-09\\video\\2022-03-09_01-01-28.mp4"}{"topic": "/b00169//log", "msg": "Stream frame=347165 fps=6.0 q=30.0 size= 2062245kB time=16:04:35.50 bitrate= 291.9kbits/s dup=0 drop=5 speed=   1x    \r"}{"topic": "/a00259/stream", "msg": "[\"8c:18:d9:83:9e:a8\",-60]"}{"topic": "/a00259/stream", "msg": "[\"8c:18:d9:84:bb:82\",-57]"}{"topic": "/a00259/stream", "msg": "[\"8c:18:d9:83:9e:a8\",-60]"}{"topic": "/a00259/stream", "msg": "[\"8c:18:d9:84:bb:82\",-59]"}{"topic": "/a00259/stream", "msg": "[\"8c:18:d9:83:9e:a8\",-85]"}{"topic": "/a00259/stream", "msg": "[\"8c:18:d9:84:bb:82\",-84]"}{"topic": "/a00259/stream", "msg": "[\"8c:18:d9:86:ee:1e\",-60]"}{"topic": "/b00330/log", "msg": "2022-03-09 01:01:28;info;record;file_start;D:\\Grabaciones\\c00085\\2022-03-09\\video\\2022-03-09_01-01-28.mp4"}{"topic": "/b00330/log", "msg": "2022-03-09 01:01:28;info;record;file_start;D:\\Grabaciones\\c00085\\2022-03-09\\video\\2022-03-09_01-01-28.mp4"}{"topic": "/a00283/stream", "msg": "[\"e6:ad:58:e0:bd:e3\",-65]"}{"topic": "/a00126/stream", "msg": "[\"0c:9a:3c:df:4b:ac\",-98]"}{"topic": "/a00148/stream", "msg": "[\"f8:b9:5a:db:f7:4c\",-86]"}{"topic": "/b00308//log", "msg": "Stream frame=288171 fps=5.0 q=24.0 size= 2070049kB time=16:02:12.40 bitrate= 293.7kbits/s speed=   1x    \r"}{"topic": "/a00052/stream", "msg": "[\"44:85:00:86:ff:92\",-90]"}{"topic": "/a00052/stream", "msg": "[\"e4:e1:30:a5:85:0c\",-75]"}{"topic": "/b00180/log", "msg": "2022-03-09 01:01:28;info;record;file_start;D:\\Grabaciones\\c00042\\2022-03-09\\video\\2022-03-09_01-01-28.mp4"}{"topic": "/a00224/stream", "msg": "[\"8c:18:d9:86:ed:91\",-61]"}{"topic": "/a00360/stream", "msg": "[\"bc:98:df:2b:93:47\",-92]"}{"topic": "/b00330/log", "msg": "2022-03-09 01:01:28;info;record;file_start;D:\\Grabaciones\\c00085\\2022-03-09\\video\\2022-03-09_01-01-28.mp4"}{"topic": "/a00243/stream", "msg": "[\"72:cd:4d:e5:47:9c\",-58]"}{"topic": "/b00180/log", "msg": "2022-03-09 01:01:28;info;record;file_start;D:\\Grabaciones\\c00041\\2022-03-09\\video\\2022-03-09_01-01-28.mp4"}{"topic": "/b00330/log", "msg": "2022-03-09 01:01:28;info;record;file_start;D:\\Grabaciones\\c00085\\2022-03-09\\video\\2022-03-09_01-01-28.mp4"}{"topic": "/b00169//log", "msg": "Stream frame=1024817 fps= 20 q=28.0 size= 1897084kB time=14:14:16.05 bitrate= 303.2kbits/s dup=0 drop=5 speed=   1x    \r"}{"topic": "/a00126/stream", "msg": "[\"cc:6e:a4:32:09:ba\",-46]"}{"topic": "/a00314/stream", "msg": "[\"7c:e9:d3:2a:6a:10\",-82]"}{"topic": "/b00180/log", "msg": "2022-03-09 01:01:29;info;record;file_start;D:\\Grabaciones\\c00041\\2022-03-09\\video\\2022-03-09_01-01-29.mp4"}{"topic": "/b00180/log", "msg": "2022-03-09 01:01:29;info;record;file_start;D:\\Grabaciones\\c00043\\2022-03-09\\video\\2022-03-09_01-01-29.mp4"}{"topic": "/b00180/log", "msg": "2022-03-09 01:01:29;info;record;file_start;D:\\Grabaciones\\c00042\\2022-03-09\\video\\2022-03-09_01-01-29.mp4"}{"topic": "/b00330/log", "msg": "2022-03-09 01:01:28;info;record;file_start;D:\\Grabaciones\\c00085\\2022-03-09\\video\\2022-03-09_01-01-28.mp4"}{"topic": "/b00169//log", "msg": "Stream frame=347280 fps=6.0 q=23.0 size= 1716880kB time=16:04:36.16 bitrate= 243.0kbits/s dup=0 drop=99 speed=   1x    \r"}{"topic": "/b00169//log", "msg": "Stream frame=347169 fps=6.0 q=23.0 size= 1751025kB time=16:04:36.00 bitrate= 247.8kbits/s dup=0 drop=5 speed=   1x    \r"}{"topic": "/a00085/stream", "msg": "[\"b0:f1:ec:82:35:70\",-64]"}{"topic": "/a00224/stream", "msg": "[\"8c:18:d9:86:eb:eb\",-53]"}{"topic": "/a00314/stream", "msg": "[\"52:df:fb:67:76:a6\",-93]"}{"topic": "/a00077/stream", "msg": "[\"c0:11:73:cf:29:52\",-99]"}{"topic": "/b00330/log", "msg": "2022-03-09 01:01:28;info;record;file_start;D:\\Grabaciones\\c00085\\2022-03-09\\video\\2022-03-09_01-01-28.mp4"}{"topic": "/b00180/log", "msg": "2022-03-09 01:01:29;info;record;file_start;D:\\Grabaciones\\c00042\\2022-03-09\\video\\2022-03-09_01-01-29.mp4"}{"topic": "/a00086/stream", "msg": "[\"36:a2:b1:db:61:2f\",-66]"}{"topic": "/b00169//log", "msg": "Stream frame=347169 fps=6.0 q=29.0 size= 2062267kB time=16:04:36.16 bitrate= 291.9kbits/s dup=0 drop=5 speed=   1x    \r"}{"topic": "/a00226/stream", "msg": "[\"18:93:7f:e6:70:57\",-93]"}{"topic": "/a00065/stream", "msg": "[\"7e:1c:ac:76:19:01\",-90]"}{"topic": "/b00330/log", "msg": "2022-03-09 01:01:29;info;record;file_start;D:\\Grabaciones\\c00085\\2022-03-09\\video\\2022-03-09_01-01-29.mp4"}{"topic": "/b00330/log", "msg": "2022-03-09 01:01:29;info;record;file_start;D:\\Grabaciones\\c00085\\2022-03-09\\video\\2022-03-09_01-01-29.mp4"}{"topic": "/b00180/log", "msg": "2022-03-09 01:01:29;info;record;file_start;D:\\Grabaciones\\c00041\\2022-03-09\\video\\2022-03-09_01-01-29.mp4"}{"topic": "/a00218/stream", "msg": "[\"90:ee:c7:27:8f:ff\",-72]"}